<svg id="Layer_1" data-name="Layer 1" xmlns="http://www.w3.org/2000/svg" width="1337.77" height="506.74" viewBox="0 0 1337.77 506.74"><g id="Group_6939" data-name="Group 6939" opacity="0.5"><path id="Path_8584" data-name="Path 8584" d="M1544.84,308.48,385.41,361.21,392.18,561l1159.43-52.73Z" transform="translate(-291.11 -264.79)" fill="#333f48" opacity="0.11" style="isolation:isolate"/><path id="Path_8585" data-name="Path 8585" d="M1623.22,379.11,307.54,436.73l5.66,170.74,1315.69-57.62Z" transform="translate(-291.11 -264.79)" fill="#333f48" opacity="0.11" style="isolation:isolate"/><path id="Path_8586" data-name="Path 8586" d="M1429.85,491.5,291.11,543.59l5.81,170.74,1138.74-52.09Z" transform="translate(-291.11 -264.79)" fill="#333f48" opacity="0.11" style="isolation:isolate"/><path id="Path_8587" data-name="Path 8587" d="M1054.54,636.43,471.21,664.21,474.78,769,1058.1,741.2Z" transform="translate(-291.11 -264.79)" fill="#333f48" opacity="0.11" style="isolation:isolate"/><path id="Path_8621" data-name="Path 8621" d="M1142.91,709l-394,17,1.52,45.51,394-17Z" transform="translate(-291.11 -264.79)" fill="#333f48" opacity="0.11" style="isolation:isolate"/><path id="Path_8622" data-name="Path 8622" d="M1528.25,647.48l-254.22,11,1,29.36,254.22-11Z" transform="translate(-291.11 -264.79)" fill="#333f48" opacity="0.11" style="isolation:isolate"/><path id="Path_8623" data-name="Path 8623" d="M1603.25,663.63l-254.22,11,1,29.37,254.22-11Z" transform="translate(-291.11 -264.79)" fill="#333f48" opacity="0.11" style="isolation:isolate"/><path id="Path_8588" data-name="Path 8588" d="M1166.86,264.79,510.49,295.13,514,399.91l656.37-30.35Z" transform="translate(-291.11 -264.79)" fill="#333f48" opacity="0.11" style="isolation:isolate"/></g></svg>