<?xml version="1.0" encoding="UTF-8"?> <svg xmlns="http://www.w3.org/2000/svg" xmlns:xlink="http://www.w3.org/1999/xlink" id="Layer_1" data-name="Layer 1" width="190" height="190" viewBox="0 0 190 190"><defs><clipPath id="clip-path"><rect width="190" height="190" fill="none"></rect></clipPath></defs><g clip-path="url(#clip-path)"><path d="M78.48,40.32h0a9.33,9.33,0,1,1-9.33,9.32,9.32,9.32,0,0,1,9.33-9.32" fill="#0a2736"></path><path d="M109.37,40.32H156.3a9.33,9.33,0,0,1,0,18.65H109.37a9.33,9.33,0,1,1,0-18.65" fill="#ccde00"></path><path d="M62.8,119.44H180.62a9.33,9.33,0,0,0,0-18.65H62.8a9.33,9.33,0,1,0,0,18.65" fill="#ccde00"></path><path d="M155.58,89.2h25a9.32,9.32,0,0,0,0-18.64h-25a9.32,9.32,0,0,0,0,18.64" fill="#ccde00"></path><path d="M155.58,149.68h0a9.33,9.33,0,1,0-9.32-9.32,9.33,9.33,0,0,0,9.32,9.32" fill="#ccde00"></path><path d="M9.38,89.2H125.46a9.32,9.32,0,1,0,0-18.64H9.38a9.32,9.32,0,1,0,0,18.64" fill="#313f48"></path><path d="M99.36,149.68h26.1a9.33,9.33,0,0,0,0-18.65H99.36a9.33,9.33,0,0,0,0,18.65" fill="#313f48"></path><path d="M34.92,100.8h0a9.32,9.32,0,1,1-9.33,9.32,9.32,9.32,0,0,1,9.33-9.32" fill="#313f48"></path><path d="M9.38,89.2H125.46a9.32,9.32,0,1,0,0-18.64H9.38a9.32,9.32,0,1,0,0,18.64" fill="#0a2736"></path><path d="M99.36,149.68h26.1a9.33,9.33,0,0,0,0-18.65H99.36a9.33,9.33,0,0,0,0,18.65" fill="#0a2736"></path><path d="M34.92,100.8h0a9.32,9.32,0,1,1-9.33,9.32,9.32,9.32,0,0,1,9.33-9.32" fill="#0a2736"></path></g></svg> 