<?xml version="1.0" encoding="utf-8"?>
<!-- Generator: Adobe Illustrator 24.2.1, SVG Export Plug-In . SVG Version: 6.00 Build 0)  -->
<svg version="1.1" id="Layer_1" xmlns="http://www.w3.org/2000/svg" xmlns:xlink="http://www.w3.org/1999/xlink" x="0px" y="0px"
	 viewBox="0 0 121.9 70.2" style="enable-background:new 0 0 121.9 70.2;" xml:space="preserve">
<style type="text/css">
	.st0{fill:#0A2736;}
	.st1{fill:#313F48;}
</style>
<g>
	<path class="st0" d="M50.4,0L50.4,0c3.3,0,6,2.7,6,6s-2.7,6-6,6s-6-2.7-6-6S47,0,50.4,0"/>
	<path class="st0" d="M70.2,0h30.1c3.3,0,6,2.7,6,6s-2.7,6-6,6H70.2c-3.3,0-6-2.7-6-6S66.9,0,70.2,0"/>
	<path class="st0" d="M40.3,50.7h75.6c3.3,0,6-2.7,6-6s-2.7-6-6-6H40.3c-3.3,0-6,2.7-6,6S37,50.7,40.3,50.7"/>
	<path class="st0" d="M99.9,31.3h16.1c3.3,0,6-2.7,6-6s-2.7-6-6-6H99.9c-3.3,0-6,2.7-6,6S96.5,31.3,99.9,31.3"/>
	<path class="st0" d="M99.9,70.2L99.9,70.2c3.3,0,6-2.7,6-6s-2.7-6-6-6s-6,2.7-6,6S96.5,70.2,99.9,70.2"/>
	<path class="st1" d="M6,31.3h74.5c3.3,0,6-2.7,6-6s-2.7-6-6-6H6c-3.3,0-6,2.7-6,6S2.7,31.3,6,31.3"/>
	<path class="st1" d="M63.8,70.2h16.8c3.3,0,6-2.7,6-6s-2.7-6-6-6H63.8c-3.3,0-6,2.7-6,6S60.4,70.2,63.8,70.2"/>
	<path class="st1" d="M22.4,38.8L22.4,38.8c3.3,0,6,2.7,6,6s-2.7,6-6,6s-6-2.7-6-6S19.1,38.8,22.4,38.8"/>
	<path class="st0" d="M6,31.3h74.5c3.3,0,6-2.7,6-6s-2.7-6-6-6H6c-3.3,0-6,2.7-6,6S2.7,31.3,6,31.3"/>
	<path class="st0" d="M63.8,70.2h16.8c3.3,0,6-2.7,6-6s-2.7-6-6-6H63.8c-3.3,0-6,2.7-6,6S60.4,70.2,63.8,70.2"/>
	<path class="st0" d="M22.4,38.8L22.4,38.8c3.3,0,6,2.7,6,6s-2.7,6-6,6s-6-2.7-6-6S19.1,38.8,22.4,38.8"/>
</g>
</svg>
