<?xml version="1.0" encoding="UTF-8"?> <svg xmlns="http://www.w3.org/2000/svg" id="Layer_1" data-name="Layer 1" width="402.85" height="72" viewBox="0 0 402.85 72"><path d="M808.9,515h0a6,6,0,1,1-6,6,6,6,0,0,1,6-6" transform="translate(-758.56 -513.98)" fill="#fff"></path><path d="M925.92,572.79c13,0,22.5-9.8,22.5-22.9s-9.5-22.8-22.5-22.8h-11.4v45.7Zm-24.3-55.9a1.88,1.88,0,0,1,1.8-1.9h23.7a35,35,0,1,1,0,70h-23.7a1.88,1.88,0,0,1-1.8-1.9Z" transform="translate(-758.56 -513.98)" fill="#fff"></path><path d="M828.72,515h30.13a6,6,0,0,1,0,12H828.72a6,6,0,0,1,0-12" transform="translate(-758.56 -513.98)" fill="#ccde00"></path><path d="M798.83,565.74h75.63a6,6,0,0,0,0-12H798.83a6,6,0,0,0,0,12" transform="translate(-758.56 -513.98)" fill="#ccde00"></path><path d="M858.39,546.33h16.07a6,6,0,0,0,0-12H858.39a6,6,0,1,0,0,12" transform="translate(-758.56 -513.98)" fill="#ccde00"></path><path d="M858.39,585.15h0a6,6,0,1,0-6-6,6,6,0,0,0,6,6" transform="translate(-758.56 -513.98)" fill="#ccde00"></path><path d="M764.54,546.33h74.51a6,6,0,1,0,0-12H764.54a6,6,0,0,0,0,12" transform="translate(-758.56 -513.98)" fill="#fff"></path><path d="M822.3,585.15h16.75a6,6,0,1,0,0-12H822.3a6,6,0,0,0,0,12" transform="translate(-758.56 -513.98)" fill="#fff"></path><path d="M780.93,553.77h0a6,6,0,1,1-6,6,6,6,0,0,1,6-6" transform="translate(-758.56 -513.98)" fill="#fff"></path><path d="M764.54,546.33h74.51a6,6,0,1,0,0-12H764.54a6,6,0,0,0,0,12" transform="translate(-758.56 -513.98)" fill="#fff"></path><path d="M822.3,585.15h16.75a6,6,0,1,0,0-12H822.3a6,6,0,0,0,0,12" transform="translate(-758.56 -513.98)" fill="#fff"></path><path d="M780.93,553.77h0a6,6,0,1,1-6,6,6,6,0,0,1,6-6" transform="translate(-758.56 -513.98)" fill="#fff"></path><path d="M1125.41,573a23,23,0,0,1,0-46,23,23,0,1,1,0,46m0-59a36,36,0,1,0,36,36.11,35.85,35.85,0,0,0-36-36.11" transform="translate(-758.56 -513.98)" fill="#fff"></path><path d="M1055.61,584.88a1.8,1.8,0,0,0,1.7,1.1h1a1.8,1.8,0,0,0,1.7-1.1l31-67.29a1.76,1.76,0,0,0-1.7-2.6h-10.19a1.84,1.84,0,0,0-1.7,1.1l-19.2,43h-.7l-19.2-43a1.84,1.84,0,0,0-1.7-1.1h-10.2a1.77,1.77,0,0,0-1.7,2.6Z" transform="translate(-758.56 -513.98)" fill="#fff"></path><path d="M1013.82,515h-40.7a1.9,1.9,0,0,0-1.9,1.9v8.21a1.9,1.9,0,0,0,1.89,1.9h40.71a1.91,1.91,0,0,0,1.9-1.9v-8.2a1.91,1.91,0,0,0-1.9-1.9m0,58h-27.4a2.19,2.19,0,0,1-2.2-2.2V557.69a2.19,2.19,0,0,1,2.2-2.2h22.5a1.9,1.9,0,0,0,1.9-1.9v-8.3a2,2,0,0,0-1.9-1.9l-35.49,0a2.21,2.21,0,0,0-2.21,2.21v37.53a1.9,1.9,0,0,0,1.9,1.9h40.7a1.91,1.91,0,0,0,1.9-1.9v-8.2a1.91,1.91,0,0,0-1.9-1.9" transform="translate(-758.56 -513.98)" fill="#fff"></path></svg> 