<?xml version="1.0" encoding="utf-8"?>
<!-- Generator: Adobe Illustrator 24.2.1, SVG Export Plug-In . SVG Version: 6.00 Build 0)  -->
<svg version="1.1" id="Layer_1" xmlns="http://www.w3.org/2000/svg" xmlns:xlink="http://www.w3.org/1999/xlink" x="0px" y="0px"
	 viewBox="0 0 402.9 72" style="enable-background:new 0 0 402.9 72;" xml:space="preserve">
<style type="text/css">
	.st0{fill:#0A2736;}
	.st1{fill:#313F48;}
</style>
<path class="st0" d="M50.3,1L50.3,1c3.3,0,6,2.7,6,6s-2.7,6-6,6s-6-2.7-6-6S47,1,50.3,1"/>
<path class="st0" d="M167.4,58.8c13,0,22.5-9.8,22.5-22.9s-9.5-22.8-22.5-22.8H156v45.7H167.4z M143.1,2.9c0-1,0.8-1.9,1.8-1.9h23.7
	c19.3,0,35,15.7,35,35s-15.7,35-35,35l0,0h-23.7c-1,0-1.8-0.9-1.8-1.9V2.9z"/>
<path class="st0" d="M70.2,1h30.1c3.3,0,6,2.7,6,6s-2.7,6-6,6H70.2c-3.3,0-6-2.7-6-6S66.8,1,70.2,1"/>
<path class="st0" d="M40.3,51.8h75.6c3.3,0,6-2.7,6-6s-2.7-6-6-6H40.3c-3.3,0-6,2.7-6,6S37,51.8,40.3,51.8"/>
<path class="st0" d="M99.8,32.4h16.1c3.3,0,6-2.7,6-6s-2.7-6-6-6H99.8c-3.3,0-6,2.7-6,6S96.5,32.4,99.8,32.4"/>
<path class="st0" d="M99.8,71.2L99.8,71.2c3.3,0,6-2.7,6-6s-2.7-6-6-6s-6,2.7-6,6S96.5,71.2,99.8,71.2"/>
<path class="st1" d="M6,32.4h74.5c3.3,0,6-2.7,6-6s-2.7-6-6-6H6c-3.3,0-6,2.7-6,6S2.7,32.4,6,32.4"/>
<path class="st1" d="M63.7,71.2h16.8c3.3,0,6-2.7,6-6s-2.7-6-6-6H63.7c-3.3,0-6,2.7-6,6S60.4,71.2,63.7,71.2"/>
<path class="st1" d="M22.4,39.8L22.4,39.8c3.3,0,6,2.7,6,6s-2.7,6-6,6s-6-2.7-6-6S19.1,39.8,22.4,39.8"/>
<path class="st0" d="M6,32.4h74.5c3.3,0,6-2.7,6-6s-2.7-6-6-6H6c-3.3,0-6,2.7-6,6S2.7,32.4,6,32.4"/>
<path class="st0" d="M63.7,71.2h16.8c3.3,0,6-2.7,6-6s-2.7-6-6-6H63.7c-3.3,0-6,2.7-6,6S60.4,71.2,63.7,71.2"/>
<path class="st0" d="M22.4,39.8L22.4,39.8c3.3,0,6,2.7,6,6s-2.7,6-6,6s-6-2.7-6-6S19.1,39.8,22.4,39.8"/>
<path class="st0" d="M366.9,59c-12.7,0-23-10.3-23-23s10.3-23,23-23s23,10.3,23,23S379.6,59,366.9,59 M366.9,0
	c-19.9,0-36,16.1-36,36c0,19.9,16.1,36,36,36c19.8,0,35.9-16.1,36-35.9c0.1-19.8-15.8-36-35.6-36.1C367.1,0,367,0,366.9,0"/>
<path class="st0" d="M297,70.9c0.3,0.7,1,1.1,1.7,1.1h1c0.7,0,1.4-0.4,1.7-1.1l31-67.3c0.5-0.9,0.2-1.9-0.7-2.4
	c-0.3-0.2-0.7-0.2-1-0.2h-10.2c-0.7,0-1.4,0.4-1.7,1.1l-19.2,43H299l-19.2-43c-0.3-0.7-1-1.1-1.7-1.1h-10.2c-1-0.1-1.8,0.7-1.9,1.6
	c0,0.3,0,0.7,0.2,1L297,70.9z"/>
<path class="st0" d="M255.3,1h-40.7c-1,0-1.9,0.9-1.9,1.9v0v8.2c0,1,0.8,1.9,1.9,1.9h40.7c1,0,1.9-0.9,1.9-1.9V2.9
	C257.2,1.9,256.3,1,255.3,1 M255.3,59h-27.4c-1.2,0-2.2-1-2.2-2.2c0,0,0,0,0,0V43.7c0-1.2,1-2.2,2.2-2.2c0,0,0,0,0,0h22.5
	c1,0,1.9-0.9,1.9-1.9v0v-8.3c-0.1-1-0.9-1.8-1.9-1.9h-35.5c-1.2,0-2.2,1-2.2,2.2c0,0,0,0,0,0v37.5c0,1,0.9,1.9,1.9,1.9h0h40.7
	c1,0,1.9-0.9,1.9-1.9V61C257.2,59.9,256.3,59.1,255.3,59"/>
</svg>
